<?xml version="1.0" encoding="UTF-8"?>
<svg width="60px" height="60px" viewBox="0 0 60 60" version="1.1" xmlns="http://www.w3.org/2000/svg" xmlns:xlink="http://www.w3.org/1999/xlink">
    <!-- Generator: Sketch 49.3 (51167) - http://www.bohemiancoding.com/sketch -->
    <title>icon-emotion-sad</title>
    <desc>Created with Sketch.</desc>
    <defs></defs>
    <g id="04_Product_2" stroke="none" stroke-width="1" fill="none" fill-rule="evenodd" opacity="0.0912024457">
        <g id="Homepage_Full_OBS" transform="translate(-487.000000, -995.000000)" fill="#000000" fill-rule="nonzero">
            <g id="Group-15" transform="translate(195.000000, 919.000000)">
                <g id="icon-emotion-sad" transform="translate(292.000000, 76.000000)">
                    <path d="M30,60 C13.4314575,60 3.10862447e-15,46.5685425 1.77635684e-15,30 C4.4408921e-16,13.4314575 13.4314575,4.4408921e-15 30,1.77635684e-15 C46.5685425,3.10862447e-15 60,13.4314575 60,30 C60,46.5685425 46.5685425,60 30,60 Z M30,54 C43.254834,54 54,43.254834 54,30 C54,16.745166 43.254834,6 30,6 C16.745166,6 6,16.745166 6,30 C6,43.254834 16.745166,54 30,54 Z M19.38,40.38 C22.1941279,37.558749 26.0151822,35.9731865 30,35.9731865 C33.9848178,35.9731865 37.8058721,37.558749 40.62,40.38 C41.3809757,41.1409757 41.6781706,42.250122 41.3996341,43.2896341 C41.1210977,44.3291463 40.3091463,45.1410977 39.2696341,45.4196341 C38.230122,45.6981706 37.1209757,45.4009757 36.36,44.64 C32.8461894,41.1305595 27.1538106,41.1305595 23.64,44.64 C22.8790243,45.4009757 21.769878,45.6981706 20.7303659,45.4196341 C19.6908537,45.1410977 18.8789023,44.3291463 18.6003659,43.2896341 C18.3218294,42.250122 18.6190243,41.1409757 19.38,40.38 Z M21,27 C19.3431458,27 18,25.6568542 18,24 C18,22.3431458 19.3431458,21 21,21 C22.6568542,21 24,22.3431458 24,24 C24,25.6568542 22.6568542,27 21,27 Z M39,27 C37.3431458,27 36,25.6568542 36,24 C36,22.3431458 37.3431458,21 39,21 C40.6568542,21 42,22.3431458 42,24 C42,25.6568542 40.6568542,27 39,27 Z" id="Shape"></path>
                </g>
            </g>
        </g>
    </g>
</svg>