<?xml version="1.0" encoding="UTF-8"?>
<svg width="91px" height="21px" viewBox="0 0 91 21" version="1.1" xmlns="http://www.w3.org/2000/svg" xmlns:xlink="http://www.w3.org/1999/xlink">
    <!-- Generator: Sketch 49.3 (51167) - http://www.bohemiancoding.com/sketch -->
    <title>LOGO Copy 2</title>
    <desc>Created with Sketch.</desc>
    <defs></defs>
    <g id="05_Product_3" stroke="none" stroke-width="1" fill="none" fill-rule="evenodd">
        <g id="LOGO-Copy-2">
            <g id="Group-2">
                <g id="picto-AI" fill-rule="nonzero">
                    <path d="M9.26493878,7.3006993 L9.26493878,5.47552448 L16.6118776,5.47552448 C18.1338737,5.47552448 19.3669796,6.70086951 19.3669796,8.21328671 L19.3669796,18.2517483 C19.3669796,19.7641655 18.1338737,20.9895105 16.6118776,20.9895105 L2.83636735,20.9895105 C1.31504328,20.9895105 0.0812653061,19.7639209 0.0812653061,18.2517483 L0.0812653061,8.21328671 C0.0812653061,6.70111406 1.31504328,5.47552448 2.83636735,5.47552448 L3.75565306,5.47552448 L3.75565306,7.3006993 L2.83636735,7.3006993 C2.32930186,7.3006993 1.918,7.70927142 1.918,8.21328671 L1.918,18.2517483 C1.918,18.7557635 2.32930186,19.1643357 2.83636735,19.1643357 L16.6118776,19.1643357 C17.1194732,19.1643357 17.5302449,18.7561492 17.5302449,18.2517483 L17.5302449,8.21328671 C17.5302449,7.70888573 17.1194732,7.3006993 16.6118776,7.3006993 L9.26493878,7.3006993 Z" id="Stroke-1" fill="#2B2B2B"></path>
                    <path d="M15.6935102,13.6888112 L15.6935102,15.513986 L8.34657143,15.513986 C6.82524736,15.513986 5.59146939,14.2883964 5.59146939,12.7762238 L5.59146939,2.73776224 C5.59146939,1.22558959 6.82524736,0 8.34657143,0 L22.1220816,0 C23.6440778,0 24.8771837,1.22534504 24.8771837,2.73776224 L24.8771837,12.7762238 C24.8771837,14.288641 23.6440778,15.513986 22.1220816,15.513986 L21.2037143,15.513986 L21.2037143,13.6888112 L22.1220816,13.6888112 C22.6296773,13.6888112 23.040449,13.2806248 23.040449,12.7762238 L23.040449,2.73776224 C23.040449,2.23336126 22.6296773,1.82517483 22.1220816,1.82517483 L8.34657143,1.82517483 C7.83950595,1.82517483 7.42820408,2.23374695 7.42820408,2.73776224 L7.42820408,12.7762238 C7.42820408,13.2802391 7.83950595,13.6888112 8.34657143,13.6888112 L15.6935102,13.6888112 Z" id="Stroke-3" fill="#4AB4E6"></path>
                </g>
                <path d="M41.977551,9.28283916 C41.8061216,8.4481217 41.4461252,7.8007995 40.897551,7.34085315 C40.3489768,6.88090679 39.6118414,6.65093706 38.6861224,6.65093706 C37.8975471,6.65093706 37.2375537,6.79573282 36.7061224,7.08532867 C36.1746912,7.37492452 35.7504097,7.75820741 35.4332653,8.23518881 C35.1161209,8.71217022 34.8889803,9.26154235 34.7518367,9.88332168 C34.6146932,10.505101 34.5461224,11.1481645 34.5461224,11.8125315 C34.5461224,12.4257933 34.6189789,13.0220111 34.7646939,13.6012028 C34.9104089,14.1803945 35.1375495,14.695697 35.4461224,15.1471259 C35.7546954,15.5985547 36.1575485,15.9605441 36.6546939,16.2331049 C37.1518392,16.5056657 37.7432619,16.6419441 38.4289796,16.6419441 C39.508985,16.6419441 40.3532623,16.3608699 40.9618367,15.7987133 C41.5704112,15.2365566 41.9432646,14.4444387 42.0804082,13.4223357 L44.317551,13.4223357 C44.0775498,15.0577005 43.4646988,16.3182753 42.4789796,17.2040979 C41.4932604,18.0899205 40.1518452,18.5328252 38.4546939,18.5328252 C37.4432602,18.5328252 36.5475549,18.3709946 35.767551,18.0473287 C34.9875471,17.7236627 34.3361251,17.2637233 33.8132653,16.6674965 C33.2904055,16.0712697 32.8961238,15.3600671 32.6304082,14.5338671 C32.3646925,13.7076672 32.2318367,12.8005644 32.2318367,11.8125315 C32.2318367,10.8244986 32.3604069,9.90036094 32.617551,9.04009091 C32.8746952,8.17982087 33.2646913,7.43028991 33.787551,6.79147552 C34.3104108,6.15266114 34.9661185,5.6501347 35.7546939,5.28388112 C36.5432692,4.91762754 37.4604029,4.7345035 38.5061224,4.7345035 C39.2604119,4.7345035 39.9675477,4.82393617 40.627551,5.0028042 C41.2875543,5.18167222 41.8704056,5.45848764 42.3761224,5.83325874 C42.8818393,6.20802985 43.2975494,6.6807454 43.6232653,7.25141958 C43.9489812,7.82209376 44.1546934,8.49922685 44.2404082,9.28283916 L41.977551,9.28283916 Z M47.8955102,11.6592168 C47.8955102,12.4598641 48.002652,13.1710668 48.2169388,13.7928462 C48.4312256,14.4146255 48.7269369,14.9341867 49.1040816,15.3515455 C49.4812264,15.7689042 49.9226505,16.0883066 50.4283673,16.3097622 C50.9340842,16.5312179 51.4697931,16.6419441 52.0355102,16.6419441 C52.6012273,16.6419441 53.1369362,16.5312179 53.6426531,16.3097622 C54.1483699,16.0883066 54.589794,15.7689042 54.9669388,15.3515455 C55.3440835,14.9341867 55.6397948,14.4146255 55.8540816,13.7928462 C56.0683684,13.1710668 56.1755102,12.4598641 56.1755102,11.6592168 C56.1755102,10.8585694 56.0683684,10.1473667 55.8540816,9.52558741 C55.6397948,8.90380808 55.3440835,8.37998814 54.9669388,7.95411189 C54.589794,7.52823563 54.1483699,7.20457453 53.6426531,6.98311888 C53.1369362,6.76166323 52.6012273,6.65093706 52.0355102,6.65093706 C51.4697931,6.65093706 50.9340842,6.76166323 50.4283673,6.98311888 C49.9226505,7.20457453 49.4812264,7.52823563 49.1040816,7.95411189 C48.7269369,8.37998814 48.4312256,8.90380808 48.2169388,9.52558741 C48.002652,10.1473667 47.8955102,10.8585694 47.8955102,11.6592168 Z M45.5812245,11.6592168 C45.5812245,10.6882189 45.718366,9.7811161 45.9926531,8.93788112 C46.2669401,8.09464613 46.6783646,7.36214996 47.2269388,6.74037063 C47.7755129,6.1185913 48.452649,5.62884095 49.2583673,5.2711049 C50.0640857,4.91336884 50.9897907,4.7345035 52.0355102,4.7345035 C53.0983727,4.7345035 54.0283634,4.91336884 54.8255102,5.2711049 C55.622657,5.62884095 56.2955075,6.1185913 56.8440816,6.74037063 C57.3926558,7.36214996 57.8040803,8.09464613 58.0783673,8.93788112 C58.3526544,9.7811161 58.4897959,10.6882189 58.4897959,11.6592168 C58.4897959,12.6302146 58.3526544,13.5330588 58.0783673,14.3677762 C57.8040803,15.2024937 57.3926558,15.9307312 56.8440816,16.5525105 C56.2955075,17.1742898 55.622657,17.6597815 54.8255102,18.009 C54.0283634,18.3582185 53.0983727,18.5328252 52.0355102,18.5328252 C50.9897907,18.5328252 50.0640857,18.3582185 49.2583673,18.009 C48.452649,17.6597815 47.7755129,17.1742898 47.2269388,16.5525105 C46.6783646,15.9307312 46.2669401,15.2024937 45.9926531,14.3677762 C45.718366,13.5330588 45.5812245,12.6302146 45.5812245,11.6592168 Z M60.6791837,0.0073006993 L62.864898,0.0073006993 L62.864898,6.8298042 L62.9163265,6.8298042 C63.2763283,6.09729704 63.842037,5.5649597 64.6134694,5.23277622 C65.3849018,4.90059274 66.2334648,4.7345035 67.1591837,4.7345035 C68.1877602,4.7345035 69.0834656,4.92188624 69.8463265,5.29665734 C70.6091875,5.67142845 71.2434669,6.17821359 71.7491837,6.81702797 C72.2549005,7.45584235 72.6363252,8.19259723 72.8934694,9.02731469 C73.1506135,9.86203215 73.2791837,10.7478415 73.2791837,11.6847692 C73.2791837,12.621697 73.1548992,13.5075063 72.9063265,14.3422238 C72.6577539,15.1769412 72.2806148,15.9051787 71.774898,16.526958 C71.2691811,17.1487374 70.6349018,17.6384877 69.8720408,17.9962238 C69.1091799,18.3539598 68.2220459,18.5328252 67.2106122,18.5328252 C66.8848963,18.5328252 66.5206143,18.4987556 66.1177551,18.4306154 C65.7148959,18.3624752 65.3163285,18.251749 64.9220408,18.0984336 C64.5277531,17.9451181 64.1548997,17.7364419 63.8034694,17.4723986 C63.4520391,17.2083553 63.1563277,16.8804355 62.9163265,16.4886294 L62.864898,16.4886294 L62.864898,18.2517483 L60.6791837,18.2517483 L60.6791837,0.0073006993 Z M70.964898,11.5314545 C70.964898,10.9181927 70.8834702,10.3177162 70.7206122,9.73000699 C70.5577543,9.14229776 70.3091853,8.61847782 69.974898,8.15853147 C69.6406106,7.69858511 69.2120434,7.33233703 68.6891837,7.05977622 C68.1663239,6.78721542 67.5534729,6.65093706 66.8506122,6.65093706 C66.1134657,6.65093706 65.4877577,6.79573282 64.9734694,7.08532867 C64.4591811,7.37492452 64.0391853,7.75394871 63.7134694,8.22241259 C63.3877535,8.69087647 63.1520415,9.2232138 63.0063265,9.81944056 C62.8606115,10.4156673 62.7877551,11.0204025 62.7877551,11.6336643 C62.7877551,12.2809962 62.8648972,12.9070249 63.0191837,13.5117692 C63.1734702,14.1165135 63.4177534,14.6488508 63.7520408,15.1087972 C64.0863282,15.5687436 64.519181,15.9392503 65.0506122,16.2203287 C65.5820435,16.501407 66.2248942,16.6419441 66.9791837,16.6419441 C67.7334732,16.6419441 68.3634669,16.4971483 68.8691837,16.2075524 C69.3749005,15.9179566 69.7820393,15.5346737 70.0906122,15.0576923 C70.3991852,14.5807109 70.6220401,14.0355975 70.7591837,13.4223357 C70.8963272,12.8090739 70.964898,12.1787865 70.964898,11.5314545 Z M77.7057143,2.66475524 L75.52,2.66475524 L75.52,0.0073006993 L77.7057143,0.0073006993 L77.7057143,2.66475524 Z M75.52,5.04113287 L77.7057143,5.04113287 L77.7057143,18.2517483 L75.52,18.2517483 L75.52,5.04113287 Z M79.5608163,16.5908392 L87.5836735,6.95756643 L80.075102,6.95756643 L80.075102,5.04113287 L90.4122449,5.04113287 L90.4122449,6.52317483 L82.2865306,16.3353147 L90.7722449,16.3353147 L90.7722449,18.2517483 L79.5608163,18.2517483 L79.5608163,16.5908392 Z" id="cobiz" fill="#2B2B2B"></path>
            </g>
        </g>
    </g>
</svg>