<?xml version="1.0" encoding="UTF-8"?>
<svg width="144px" height="35px" viewBox="0 0 144 35" version="1.1" xmlns="http://www.w3.org/2000/svg" xmlns:xlink="http://www.w3.org/1999/xlink">
    <!-- Generator: Sketch 49.3 (51167) - http://www.bohemiancoding.com/sketch -->
    <title>logo full A Copy</title>
    <desc>Created with Sketch.</desc>
    <defs></defs>
    <g id="01_Logos" stroke="none" stroke-width="1" fill="none" fill-rule="evenodd">
        <g id="Artboard-3" transform="translate(-573.000000, -1595.000000)">
            <g id="logo-full-A-Copy" transform="translate(526.000000, 1554.000000)">
                <rect id="Rectangle-3" x="0" y="0" width="239" height="118.029999"></rect>
                <g id="LOGO-Copy-3" transform="translate(49.324022, 41.877095)">
                    <g id="Group-2">
                        <g id="picto-AI" transform="translate(0.000000, 1.446927)" fill-rule="nonzero">
                            <path d="M13.0217676,10.1284916 L13.0217676,7.23463687 L24.5971866,7.23463687 C26.9951573,7.23463687 28.9379687,9.17744832 28.9379687,11.575419 L28.9379687,27.4916201 C28.9379687,29.8895908 26.9951573,31.8324022 24.5971866,31.8324022 L2.89327598,31.8324022 C0.496364275,31.8324022 -1.44750615,29.889203 -1.44750615,27.4916201 L-1.44750615,11.575419 C-1.44750615,9.17783607 0.496364275,7.23463687 2.89327598,7.23463687 L4.34165028,7.23463687 L4.34165028,10.1284916 L2.89327598,10.1284916 C2.09437243,10.1284916 1.4463486,10.7762917 1.4463486,11.575419 L1.4463486,27.4916201 C1.4463486,28.2907474 2.09437243,28.9385475 2.89327598,28.9385475 L24.5971866,28.9385475 C25.3969254,28.9385475 26.044114,28.2913589 26.044114,27.4916201 L26.044114,11.575419 C26.044114,10.7756802 25.3969254,10.1284916 24.5971866,10.1284916 L13.0217676,10.1284916 Z" id="Stroke-1" fill="#2B2B2B"></path>
                            <path d="M23.1502592,20.2569832 L23.1502592,23.150838 L11.5748402,23.150838 C9.17792852,23.150838 7.2340581,21.2076388 7.2340581,18.8100559 L7.2340581,2.89385475 C7.2340581,0.49627182 9.17792852,-1.44692737 11.5748402,-1.44692737 L33.2787508,-1.44692737 C35.6767215,-1.44692737 37.619533,0.495884077 37.619533,2.89385475 L37.619533,18.8100559 C37.619533,21.2080265 35.6767215,23.150838 33.2787508,23.150838 L31.8318235,23.150838 L31.8318235,20.2569832 L33.2787508,20.2569832 C34.0784897,20.2569832 34.7256782,19.6097947 34.7256782,18.8100559 L34.7256782,2.89385475 C34.7256782,2.09411592 34.0784897,1.44692737 33.2787508,1.44692737 L11.5748402,1.44692737 C10.7759367,1.44692737 10.1279128,2.09472744 10.1279128,2.89385475 L10.1279128,18.8100559 C10.1279128,19.6091832 10.7759367,20.2569832 11.5748402,20.2569832 L23.1502592,20.2569832 Z" id="Stroke-3" fill="#4AB4E6"></path>
                        </g>
                        <path d="M64.5618994,14.7181453 C64.291805,13.3946824 63.7246151,12.3683388 62.8603128,11.6390838 C61.9960106,10.9098288 60.8346218,10.5452067 59.3761117,10.5452067 C58.1336772,10.5452067 57.0938291,10.7747836 56.2565363,11.2339441 C55.4192435,11.6931047 54.7507697,12.3008081 54.251095,13.0570726 C53.7514202,13.8133371 53.3935504,14.6843787 53.1774749,15.6702235 C52.9613993,16.6560682 52.8533631,17.6756595 52.8533631,18.7290279 C52.8533631,19.701368 52.9681516,20.6466844 53.1977318,21.5650056 C53.4273121,22.4833268 53.7851819,23.3003502 54.271352,24.0161006 C54.757522,24.7318509 55.3922344,25.305793 56.1755084,25.7379441 C56.9587823,26.1700953 57.8905942,26.3861676 58.9709721,26.3861676 C60.6725672,26.3861676 62.0027624,25.9405184 62.9615978,25.0492067 C63.9204331,24.157895 64.5078797,22.9019746 64.7239553,21.2814078 L68.2486704,21.2814078 C67.8705381,23.8743146 66.9049649,25.8729837 65.3519218,27.2774749 C63.7988786,28.6819661 61.6854212,29.3842011 59.011486,29.3842011 C57.4179287,29.3842011 56.0067063,29.1276152 54.7777765,28.6144358 C53.5488467,28.1012563 52.5225032,27.3720122 51.6987151,26.4266816 C50.874927,25.481351 50.253719,24.3537235 49.8350726,23.0437654 C49.4164262,21.7338072 49.2071061,20.2955758 49.2071061,18.7290279 C49.2071061,17.1624801 49.409674,15.6972396 49.8148156,14.3332626 C50.2199573,12.9692855 50.834413,11.7808877 51.6582011,10.7680335 C52.4819892,9.75517929 53.515085,8.95841259 54.7575196,8.3777095 C55.9999541,7.79700641 57.4449378,7.50665922 59.092514,7.50665922 C60.2809296,7.50665922 61.3950525,7.64845668 62.4349162,7.93205587 C63.4747799,8.21565505 64.3930873,8.65455196 65.1898659,9.24875978 C65.9866446,9.84296759 66.6416138,10.5924685 67.1547933,11.4972849 C67.6679728,12.4021014 67.9920813,13.4757107 68.1271285,14.7181453 L64.5618994,14.7181453 Z M73.8858994,18.4859441 C73.8858994,19.7553881 74.0547059,20.8830156 74.392324,21.8688603 C74.7299421,22.8547051 75.1958481,23.6784809 75.7900559,24.3402123 C76.3842637,25.0019437 77.0797465,25.5083632 77.8765251,25.859486 C78.6733038,26.2106088 79.5173363,26.3861676 80.408648,26.3861676 C81.2999598,26.3861676 82.1439923,26.2106088 82.9407709,25.859486 C83.7375496,25.5083632 84.4330324,25.0019437 85.0272402,24.3402123 C85.621448,23.6784809 86.087354,22.8547051 86.4249721,21.8688603 C86.7625901,20.8830156 86.9313966,19.7553881 86.9313966,18.4859441 C86.9313966,17.2165002 86.7625901,16.0888727 86.4249721,15.1030279 C86.087354,14.1171832 85.621448,13.2866551 85.0272402,12.611419 C84.4330324,11.9361828 83.7375496,11.4230111 82.9407709,11.0718883 C82.1439923,10.7207655 81.2999598,10.5452067 80.408648,10.5452067 C79.5173363,10.5452067 78.6733038,10.7207655 77.8765251,11.0718883 C77.0797465,11.4230111 76.3842637,11.9361828 75.7900559,12.611419 C75.1958481,13.2866551 74.7299421,14.1171832 74.392324,15.1030279 C74.0547059,16.0888727 73.8858994,17.2165002 73.8858994,18.4859441 Z M70.2396425,18.4859441 C70.2396425,16.9464057 70.4557148,15.5081743 70.8878659,14.1712067 C71.3200171,12.8342391 71.968234,11.6728504 72.8325363,10.6870056 C73.6968386,9.70116081 74.7636957,8.92465088 76.0331397,8.35745251 C77.3025836,7.79025415 78.7610718,7.50665922 80.408648,7.50665922 C82.0832337,7.50665922 83.5484742,7.79025415 84.8044134,8.35745251 C86.0603526,8.92465088 87.1204575,9.70116081 87.9847598,10.6870056 C88.849062,11.6728504 89.497279,12.8342391 89.9294302,14.1712067 C90.3615813,15.5081743 90.5776536,16.9464057 90.5776536,18.4859441 C90.5776536,20.0254826 90.3615813,21.4569617 89.9294302,22.7804246 C89.497279,24.1038874 88.849062,25.2585239 87.9847598,26.2443687 C87.1204575,27.2302135 86.0603526,27.9999712 84.8044134,28.5536648 C83.5484742,29.1073584 82.0832337,29.3842011 80.408648,29.3842011 C78.7610718,29.3842011 77.3025836,29.1073584 76.0331397,28.5536648 C74.7636957,27.9999712 73.6968386,27.2302135 72.8325363,26.2443687 C71.968234,25.2585239 71.3200171,24.1038874 70.8878659,22.7804246 C70.4557148,21.4569617 70.2396425,20.0254826 70.2396425,18.4859441 Z M94.0271285,0.011575419 L97.4708156,0.011575419 L97.4708156,10.8288045 L97.5518436,10.8288045 C98.1190419,9.66739829 99.0103403,8.82336576 100.225765,8.29668156 C101.44119,7.76999737 102.778138,7.50665922 104.236648,7.50665922 C105.857215,7.50665922 107.268437,7.80375867 108.470358,8.39796648 C109.672278,8.99217429 110.671612,9.79569326 111.468391,10.8085475 C112.26517,11.8214017 112.866121,12.9895427 113.271263,14.3130056 C113.676404,15.6364684 113.878972,17.0409386 113.878972,18.5264581 C113.878972,20.0119776 113.683157,21.4164478 113.29152,22.7399106 C112.899883,24.0633735 112.305684,25.21801 111.508905,26.2038547 C110.712126,27.1896995 109.712792,27.9662095 108.510872,28.5334078 C107.308951,29.1006062 105.911233,29.3842011 104.317676,29.3842011 C103.804497,29.3842011 103.230554,29.330183 102.595832,29.2221453 C101.96111,29.1141075 101.33315,28.9385487 100.711933,28.6954637 C100.090716,28.4523787 99.5032691,28.1215179 98.9495754,27.7028715 C98.3958818,27.2842251 97.9299758,26.7643011 97.5518436,26.1430838 L97.4708156,26.1430838 L97.4708156,28.9385475 L94.0271285,28.9385475 L94.0271285,0.011575419 Z M110.232715,18.2833743 C110.232715,17.3110342 110.104422,16.3589656 109.847832,15.4271397 C109.591243,14.4953138 109.199612,13.6647858 108.672927,12.9355307 C108.146243,12.2062757 107.471017,11.6255813 106.647229,11.1934302 C105.823441,10.761279 104.857868,10.5452067 103.75048,10.5452067 C102.589074,10.5452067 101.603244,10.7747836 100.792961,11.2339441 C99.9826775,11.6931047 99.320956,12.2940559 98.8077765,13.0368156 C98.2945971,13.7795754 97.9232227,14.6236079 97.6936425,15.5689385 C97.4640622,16.5142692 97.3492737,17.4730901 97.3492737,18.4454302 C97.3492737,19.4717891 97.4708144,20.4643714 97.7138994,21.4232067 C97.9569845,22.382042 98.3418633,23.2260746 98.8685475,23.9553296 C99.3952317,24.6845847 100.07721,25.2720313 100.914503,25.7176872 C101.751796,26.163343 102.764635,26.3861676 103.95305,26.3861676 C105.141466,26.3861676 106.134048,26.1565908 106.930827,25.6974302 C107.727605,25.2382696 108.36907,24.6305662 108.85524,23.8743017 C109.34141,23.1180372 109.692528,22.2537479 109.908603,21.2814078 C110.124679,20.3090678 110.232715,19.3097333 110.232715,18.2833743 Z M120.853162,4.22502793 L117.409475,4.22502793 L117.409475,0.011575419 L120.853162,0.011575419 L120.853162,4.22502793 Z M117.409475,7.99282682 L120.853162,7.99282682 L120.853162,28.9385475 L117.409475,28.9385475 L117.409475,7.99282682 Z M123.775955,26.3051397 L136.416313,11.0313743 L124.586235,11.0313743 L124.586235,7.99282682 L140.872849,7.99282682 L140.872849,10.3426369 L128.070436,25.9 L141.440045,25.9 L141.440045,28.9385475 L123.775955,28.9385475 L123.775955,26.3051397 Z" id="cobiz" fill="#2B2B2B"></path>
                    </g>
                </g>
            </g>
        </g>
    </g>
</svg>