<?xml version="1.0" encoding="UTF-8"?>
<svg width="88px" height="105px" viewBox="0 0 88 105" version="1.1" xmlns="http://www.w3.org/2000/svg" xmlns:xlink="http://www.w3.org/1999/xlink">
    <!-- Generator: Sketch 49.3 (51167) - http://www.bohemiancoding.com/sketch -->
    <title>Shape</title>
    <desc>Created with Sketch.</desc>
    <defs></defs>
    <g id="05_Product_3" stroke="none" stroke-width="1" fill="none" fill-rule="evenodd">
        <g id="Completion_OBS-Copy-3" transform="translate(-467.000000, -305.000000)" fill="#EAEAEA" fill-rule="nonzero">
            <g id="Group-4" transform="translate(373.000000, 240.000000)">
                <g id="Group-40" transform="translate(63.000000, 28.000000)">
                    <g id="avatar">
                        <g id="picture-man" transform="translate(0.854962, 0.854962)">
                            <path d="M19,148.610331 C19,148.332245 20.6685139,144.995217 22.893199,132.342321 C23.727456,127.475822 33.5994964,123.026452 46.3914361,117.603782 C50.8408065,115.657182 54.7340055,114.127711 56.5415622,112.876326 C61.5471039,109.678341 61.408061,104.950885 61.408061,101.474815 C61.408061,101.057686 61.408061,100.779601 61.408061,100.362472 C61.408061,99.3891723 60.9909326,98.833001 60.1566756,97.8597013 C58.9052902,96.3302303 57.2367763,94.3836308 56.2634766,89.6561749 C55.9853909,88.821918 55.7073053,87.987661 55.5682625,87.0143613 C55.5682625,87.0143613 55.4292196,86.0410616 55.151134,84.7896762 C54.8730484,83.8163764 54.7340055,82.8430767 54.5949627,82.0088198 C52.5093204,84.5115905 49.0332498,75.1957216 50.1455924,70.8853941 C50.7017637,68.7997518 51.8141062,68.3826234 52.9264488,68.5216662 C52.787406,67.5483664 45.5571792,51.0022708 55.151134,44.8843867 C54.0387914,41.6864018 54.4559199,38.6274598 54.4559199,38.488417 C54.5949627,38.0712885 54.7340055,37.7932029 55.151134,37.6541601 C55.5682625,37.5151172 55.8463481,37.5151172 56.2634766,37.6541601 C61.2690182,41.1302306 66.6916883,39.7398024 72.2534012,38.488417 C76.4246859,37.5151172 80.5959706,36.4027747 84.9062981,37.3760744 C89.6337541,38.3493742 91.9974821,42.5206588 93.1098247,45.0234295 C102.842822,51.0022708 95.6125955,67.6874093 95.4735527,68.660709 C96.5858953,68.5216662 97.6982379,68.7997518 98.2544092,71.024437 C99.3667517,75.3347644 95.7516383,84.6506334 93.8050388,82.1478626 C93.3879103,84.7896762 92.1365249,89.9342605 91.7193965,91.1856459 C90.7460967,95.0788449 89.3556685,96.8864015 88.2433259,98.1377869 C87.409069,99.1110867 86.9919405,99.667258 86.9919405,100.640558 C86.9919405,100.918643 86.9919405,101.335772 86.9919405,101.7529 C86.9919405,105.228971 86.8528977,109.817384 91.8584393,113.154412 C93.665996,114.266754 97.559195,115.935268 102.008565,117.881867 C114.800505,123.304537 124.672546,127.89295 125.506802,132.620406 C127.731488,145.273303 129.400002,148.610331 129.400002,148.888416 L129.400002,149.027459 L129.400002,149.166502 C123.004032,166.685897 25.9521412,166.685897 19.5561713,149.166502 L19.5561713,149.027459 L19,148.610331 Z" id="Shape"></path>
                        </g>
                    </g>
                </g>
            </g>
        </g>
    </g>
</svg>