<?xml version="1.0" encoding="UTF-8"?>
<svg width="30px" height="24px" viewBox="0 0 30 24" version="1.1" xmlns="http://www.w3.org/2000/svg" xmlns:xlink="http://www.w3.org/1999/xlink">
    <!-- Generator: Sketch 49.3 (51167) - http://www.bohemiancoding.com/sketch -->
    <title>Shape</title>
    <desc>Created with Sketch.</desc>
    <defs></defs>
    <g id="OBT" stroke="none" stroke-width="1" fill="none" fill-rule="evenodd">
        <g id="EntrepriseESN_OBS" transform="translate(-513.000000, -661.000000)" fill="#000000" fill-rule="nonzero">
            <path d="M537.890156,674.584908 L514.500311,674.584908 C513.671712,674.584908 513,673.913196 513,673.084597 C513,672.255999 513.671712,671.584287 514.500311,671.584287 L537.890156,671.584287 L529.938509,663.63264 C529.513176,663.26289 529.330934,662.685965 529.466684,662.138978 C529.602434,661.591991 530.033274,661.167219 530.582131,661.039242 C531.130989,660.911264 531.70527,661.10167 532.06895,661.532204 L542.571125,672.03438 C543.142958,672.617766 543.142958,673.551429 542.571125,674.134815 L532.06895,684.63699 C531.477342,685.151286 530.589526,685.123443 530.031308,684.573086 C529.473089,684.02273 529.432656,683.135398 529.938509,682.536555 L537.890156,674.584908 Z" id="Shape"></path>
        </g>
    </g>
</svg>